<svg xmlns="http://www.w3.org/2000/svg" viewBox="0 0 557.57 607.3"><title>quill</title><g id="Layer_2" data-name="Layer 2"><g id="Layer_1-2" data-name="Layer 1"><path d="M545,26.21c2.16,3.48,4.8,6.74,6.38,10.45,3.51,8.27,2.45,11.1-5,16Q529.86,63.4,513.3,74.07c.2.5.4,1,.59,1.49L553.17,61.3c0,5.92.21,12-.17,18-.08,1.25-2.18,2.7-3.65,3.48a243.46,243.46,0,0,1-58.19,22.1,1.74,1.74,0,0,0-1.21,1,246.45,246.45,0,0,0,58.38-12.22c-2.64,8.59-5.26,15.7-12.48,20.15-22.46,13.86-47.25,20.32-73.16,23.26A146.05,146.05,0,0,0,448,139c27.05,3.65,53.36-.32,80.31-8.88A118.66,118.66,0,0,1,496.81,185c-15.59,15.67-36.87,18.67-56.52,25.34l.3,1.29,37.59-6.07c.18.39.36.78.55,1.17l-45.9,19.38,31.47-4c-2,2.42-3.22,4.05-4.61,5.47-11.08,11.34-24.16,20-38.22,27-38.4,19-78.85,31.4-121.6,35.3-12.38,1.13-24.95.35-37.43.17-13.49-.19-26.32,2.87-38.88,7.81,3.49-.35,7-.66,10.47-1.06a175.08,175.08,0,0,1,57.58,3c17.23,3.73,34.84,2.4,52.29.8,11.57-1.06,23.09-2.64,35.67-4.11-3.22,5.74-5.93,11.32-9.3,16.48-15,22.88-34.68,39.62-61.26,47.9-20.79,6.47-41.06,14.81-62.08,20.33-15.35,4-31.55,4.83-47.37,7.07l-11.14,1.61a13.6,13.6,0,0,0,2.44.95c18.33,0,36.75,1.07,55-.37,11.75-.93,23.21-5.5,34.78-8.5,2-.53,4-1.39,6.35-1.41a25.08,25.08,0,0,1-2.46,2.06c-32.84,21.07-66.67,40.29-102.84,55.18-17.24,7.1-35.27,10.76-53.54,13.81-8.35,1.39-16.54,3.75-24.72,5.94-2,.53-3.68,2.1-5.5,3.2l.66,1.48c4.32-.82,8.64-1.65,13-2.45,13.29-2.46,26.59-4.08,40.22-3,11.36.89,22.07-3,32.43-7.12,10.92-4.38,21.57-9.43,32.74-13.73-3.36,2.75-6.65,5.58-10.08,8.24-25.17,19.54-54,31.13-84.41,39.72-14.06,4-27.95,8.36-41.1,15.22-4.92,2.58-12,1.07-18.9,1.48.89-2,1.29-3.21,1.89-4.28,47.19-84.55,103.47-162.36,172.11-230.88,39.74-39.66,82.7-75.49,130.31-105.42,45.49-28.6,88.48-60.64,130.6-93.89C513.26,53.52,528.5,40.06,545,26.21Z"/><path d="M476.35,43.32l37.57-36C507.29,17.49,501.26,26.76,495.24,36l.74.68,41.8-27.37c.22.29.45.57.67.85-8.58,7.47-17.19,14.91-25.73,22.41-32.14,28.23-68.52,49.85-106.18,69.78C359,127.52,315.38,158.67,272,190.24c-46.8,34-82.69,78.06-117,123.63Q110.1,373.36,71,436.81c-11.69,19-22.65,38.44-33.47,57.95-2.36,4.24-5.26,4.34-8.93,4.13-4.07-.23-4.08-3.83-4.2-6.29-.58-12.59-1.5-25.25-.88-37.81.9-18.31,5-36.18,10.34-53.88,2.75,14.34,1.91,29.4,9,42.8A120.48,120.48,0,0,1,47.46,393a28.08,28.08,0,0,1,3.15-6.6c-.17,12.14-3,24.23.23,36.17l1.38.12c1.06-6.6,1.83-13.25,3.23-19.77,5.06-23.57,10-47.18,15.66-70.61,3.7-15.36,12.5-28.47,22.45-40.3,15.42-18.33,32-35.7,48.07-53.47a9.6,9.6,0,0,1,1.6-1c1,17.81-1.23,35.9,8.37,51.81l1.49-.1a40,40,0,0,0-.28-4.91c-5.29-30.61-2.2-60.19,11.95-88,3.7-7.28,9.43-13.65,14.82-19.95C204.74,146.93,233,121,266,100.42c1.27-.8,2.57-1.54,3.88-2.26.24-.13.61,0,1.36,0-4.92,15.86-10.89,31.41-8.88,48.49,1.35-5.36,2.65-10.74,4.05-16.09,3.66-14,8.84-27.27,18.08-38.57a33.27,33.27,0,0,1,9.06-7.64c15.19-8.64,30.56-17,45.89-25.36,1.38-.76,2.85-1.35,5.3-2.5C338,74.78,331.17,91.94,331.22,111c.57-1,1.21-1.91,1.69-2.93,11-23.2,22.93-45.89,39.06-66.06a15.39,15.39,0,0,1,4.74-4.23C410.1,21.05,445.06,9,481.92,2.63c6-1,12.16-1.67,19.24-2.63L476.05,43Z"/><path d="M509.08,49.11c-17.05,12.73-33.71,26-51.24,38.06-32.82,22.52-66.22,44.19-99.24,66.42a790.34,790.34,0,0,0-92.29,73.29c-73.91,67.7-135.35,145.5-187,231.23-7.3,12.13-14.61,24.26-21.39,36.68-5.08,9.31-9.31,19.07-14.2,29.21l-12.71-4.89c11-18.85,21.46-37.18,32.23-55.33,36.1-60.85,76.12-119,121-173.74,38.68-47.24,83.33-87.91,133.08-123.25,36.86-26.19,75.59-49.31,114.24-72.62l72.71-43.9c1.27-.76,2.57-1.46,3.86-2.19Z"/><path d="M45,606c-5.33.31-10.65.69-16,.87a13.47,13.47,0,0,1-5.87-.68A6,6,0,0,1,20,602.29c-.17-1.18,1.26-3.23,2.5-3.83A17.42,17.42,0,0,1,29.23,597c59.45-2.37,117.49-12.51,173.87-31.59,32.52-11,64-24.54,95-39.33,48-22.95,97.31-42.45,148.92-55.75a739.08,739.08,0,0,1,100.68-18.22,10.18,10.18,0,0,1,2,0c3.62.32,7.78,1,7.91,5.26.13,4.51-4.51,4.14-7.6,4.66-23.63,4-47.44,7.1-70.9,11.92a557.62,557.62,0,0,0-97.38,29.45Q332.9,523.1,285,545c-50.46,23.18-102.42,41.63-157.18,51.19-27.35,4.77-55.07,7.47-82.62,11.11Z"/><path d="M0,606.57c4.51-12.46,3.28-23.74.53-35.05-.36-1.48-.59-3.46.09-4.65C5.19,559,10,551.23,15,543.11l22.43,8.82c-2.65,10.47-5.21,20.73-7.93,31a4.1,4.1,0,0,1-2.29,2.24c-10.47,4-18.38,11.16-25,19.93A14,14,0,0,1,0,606.57Zm10.23-33.13,0,2.26c2,1.32,3.8,3.45,5.9,3.75,3.16.45,5.42-1.75,5.31-5.13s-2.34-5.52-5.55-4.88C13.85,569.86,12.12,572.05,10.23,573.44Z"/><path d="M41.94,545.05,16.66,534.87c1.59-3.76,3-7.17,4.73-11.17l25.42,10.2Z"/></g></g></svg>