<svg xmlns="http://www.w3.org/2000/svg" viewBox="0 0 443.43 432.7"><defs><style>.cls-1,.cls-2,.cls-4,.cls-5,.cls-6{fill:none;}.cls-1,.cls-5,.cls-6{stroke:#0071af;}.cls-1,.cls-2,.cls-6{stroke-linecap:round;}.cls-1{stroke-linejoin:round;}.cls-1,.cls-2,.cls-5,.cls-6{stroke-width:5.67px;}.cls-2{stroke:#000;}.cls-2,.cls-4,.cls-5,.cls-6{stroke-miterlimit:10;}.cls-3{font-size:107.08px;font-family:Montserrat-Regular, Montserrat;letter-spacing:-0.06em;}.cls-4{stroke:#fff;stroke-width:31.18px;}</style></defs><title>404</title><g id="Layer_2" data-name="Layer 2"><g id="Layer_1-2" data-name="Layer 1"><polygon class="cls-1" points="128.8 88.79 128.8 407.59 151.93 429.87 179.96 405.97 204.32 429.87 230.05 405.51 255.78 429.87 281.51 404.13 305.87 429.87 333.44 403.68 360.09 429.87 360.09 157.83 293.27 90.45 128.8 88.79"/><polyline class="cls-1" points="360.09 157.83 293.27 157.83 293.27 90.45"/><line class="cls-2" x1="277.36" y1="7.47" x2="287.61" y2="48.45"/><line class="cls-2" x1="342.25" y1="21.13" x2="337.47" y2="48.45"/><line class="cls-2" x1="377.92" y1="69.62" x2="407.13" y2="42.98"/><line class="cls-2" x1="399.62" y1="109.92" x2="429.67" y2="104.45"/><line class="cls-2" x1="402.35" y1="157.83" x2="440.6" y2="170.71"/><text class="cls-3" transform="translate(145.01 284.87)">404</text><circle class="cls-4" cx="142.09" cy="103.39" r="84.04"/><circle class="cls-5" cx="143.12" cy="104.25" r="101.41"/><path class="cls-5" d="M60.92,163.63l-54,54A17.92,17.92,0,0,0,32.2,242.83l54.46-54.47"/><path class="cls-6" d="M76.6,80.93s5.82-39.54,44.19-43"/></g></g></svg>