<svg xmlns="http://www.w3.org/2000/svg" viewBox="0 0 443.83 402.8" style=""><defs><style>.cls-1,.cls-4,.cls-5{fill:none;stroke:#444;stroke-miterlimit:10;}.cls-1{stroke-width:5.67px;}.cls-2{fill:#29787c;}.cls-3{fill:#f29bb4;}.cls-4{stroke-width:7.09px;}.cls-5{stroke-width:2.83px;}.cls-6{fill:#f29100;}.cls-7{fill:#4cd7ed;}</style></defs><title>error500</title><g id="Layer_2" data-name="Layer 2"><g id="Layer_1-2" data-name="Layer 1"><path class="cls-1 eZfDqcQG_0" d="M4.43,385.11v9.24A5.61,5.61,0,0,0,10,400H434.26a5.61,5.61,0,0,0,5.61-5.61v-8.88a5.61,5.61,0,0,0-5.61-5.61L10,379.5A5.6,5.6,0,0,0,4.43,385.11Z"></path><path class="cls-1 eZfDqcQG_1" d="M410,320.32l29.72,46.8a8.23,8.23,0,0,1-6.94,12.63H11.07a8.22,8.22,0,0,1-7-12.53l28.77-46.78a9.76,9.76,0,0,1,8.31-4.65H401.74A9.76,9.76,0,0,1,410,320.32Z"></path><path class="cls-2 eZfDqcQG_2" width="273" height="6" d="M 89.1,222.96 L 356.1,222.96 A 3,3,0,0,1,359.1,225.96 L 359.1,225.96 A 3,3,0,0,1,356.1,228.96 L 89.1,228.96 A 3,3,0,0,1,86.1,225.96 L 86.1,225.96 A 3,3,0,0,1,89.1,222.96"></path><path class="cls-2 eZfDqcQG_3" width="56.02" height="6.49" transform="translate(-64.24 187.41) rotate(-50.09)" d="M 143.43,159.21 L 193.45000000000002,159.21 A 3,3,0,0,1,196.45000000000002,162.21 L 196.45000000000002,162.70000000000002 A 3,3,0,0,1,193.45000000000002,165.70000000000002 L 143.43,165.70000000000002 A 3,3,0,0,1,140.43,162.70000000000002 L 140.43,162.21 A 3,3,0,0,1,143.43,159.21"></path><path class="cls-2 eZfDqcQG_4" width="56.02" height="6.49" transform="translate(151.92 395.88) rotate(-129.91)" d="M 143.43,159.21 L 193.45000000000002,159.21 A 3,3,0,0,1,196.45000000000002,162.21 L 196.45000000000002,162.70000000000002 A 3,3,0,0,1,193.45000000000002,165.70000000000002 L 143.43,165.70000000000002 A 3,3,0,0,1,140.43,162.70000000000002 L 140.43,162.21 A 3,3,0,0,1,143.43,159.21"></path><path class="cls-2 eZfDqcQG_5" width="56.02" height="6.49" transform="translate(-25.89 269.48) rotate(-50.09)" d="M 250.43,159.21 L 300.45,159.21 A 3,3,0,0,1,303.45,162.21 L 303.45,162.70000000000002 A 3,3,0,0,1,300.45,165.70000000000002 L 250.43,165.70000000000002 A 3,3,0,0,1,247.43,162.70000000000002 L 247.43,162.21 A 3,3,0,0,1,250.43,159.21"></path><path class="cls-2 eZfDqcQG_6" width="56.02" height="6.49" transform="translate(327.58 477.95) rotate(-129.91)" d="M 250.43,159.21 L 300.45,159.21 A 3,3,0,0,1,303.45,162.21 L 303.45,162.70000000000002 A 3,3,0,0,1,300.45,165.70000000000002 L 250.43,165.70000000000002 A 3,3,0,0,1,247.43,162.70000000000002 L 247.43,162.21 A 3,3,0,0,1,250.43,159.21"></path><path class="cls-3 eZfDqcQG_7" d="M297.1,229c-2.53,9.2,3.15,26.39,8,31.19,4,4,9.24,3.54,13,0,5-4.7,11.16-21.75,9-31.19Z"></path><path class="cls-4 eZfDqcQG_8" width="378.26" height="255.83" d="M 49.91,57.96 L 394.16999999999996,57.96 A 17,17,0,0,1,411.16999999999996,74.96000000000001 L 411.16999999999996,296.79 A 17,17,0,0,1,394.16999999999996,313.79 L 49.91,313.79 A 17,17,0,0,1,32.91,296.79 L 32.91,74.96000000000001 A 17,17,0,0,1,49.91,57.96"></path><path class="cls-5 eZfDqcQG_9" width="345" height="216.27" d="M 66.6,78.19 L 377.6,78.19 A 17,17,0,0,1,394.6,95.19 L 394.6,277.46000000000004 A 17,17,0,0,1,377.6,294.46000000000004 L 66.6,294.46000000000004 A 17,17,0,0,1,49.6,277.46000000000004 L 49.6,95.19 A 17,17,0,0,1,66.6,78.19"></path><path class="cls-6 eZfDqcQG_10" d="M353.48,121.48a9.5,9.5,0,0,1,9.86-9.49,9.35,9.35,0,0,1,9.68,9.49,9.61,9.61,0,0,1-9.68,9.67A9.76,9.76,0,0,1,353.48,121.48ZM355.53,0h15.62l-2.79,91.16H358.13Z"></path><path class="cls-7 eZfDqcQG_11" d="M200.1,357.13c-.74,8.69-7.26,16.27-20.16,16.28-6.25,0-12.48-1.87-16.18-5.24l5.67-8.7a16.46,16.46,0,0,0,11.63,4.41c5.07,0,8.48-2.4,9-6.39s-1.41-6.38-9-6.37H170.24l7.13-27.64h23.26l-.86,9.11H183.33l-2.06,9.33h3.31C196.63,341.92,200.84,348.44,200.1,357.13Z"></path><path class="cls-7 eZfDqcQG_12" d="M207.17,348c1-16.18,8.58-25.36,17.92-25.36s16.81,9.17,17.72,25.34-6.76,25.35-17.92,25.36S206.13,364.2,207.17,348Zm26,0c-.27-11.13-3.53-15.75-8.08-15.75s-7.79,4.63-8.14,15.77,3,15.75,8,15.75S233.39,359.13,233.13,348Z"></path><path class="cls-7 eZfDqcQG_13" d="M249.88,348c-1.3-16.17,4.91-25.33,14.25-25.33s18.13,9.16,21.38,25.31-3.1,25.32-14.25,25.33S251.17,364.15,249.88,348Zm25.95,0c-1.87-11.12-5.8-15.73-10.35-15.73s-7.12,4.62-5.86,15.75,5.28,15.73,10.29,15.73S277.7,359.08,275.83,348Z"></path></g></g><style data-made-with="vivus-instant">.eZfDqcQG_0{stroke-dasharray:902 904;stroke-dashoffset:903;animation:eZfDqcQG_draw_0 7200ms linear 0ms infinite,eZfDqcQG_fade 7200ms linear 0ms infinite;}.eZfDqcQG_1{stroke-dasharray:948 950;stroke-dashoffset:949;animation:eZfDqcQG_draw_1 7200ms linear 0ms infinite,eZfDqcQG_fade 7200ms linear 0ms infinite;}.eZfDqcQG_2{stroke-dasharray:553 555;stroke-dashoffset:554;animation:eZfDqcQG_draw_2 7200ms linear 0ms infinite,eZfDqcQG_fade 7200ms linear 0ms infinite;}.eZfDqcQG_3{stroke-dasharray:120 122;stroke-dashoffset:121;animation:eZfDqcQG_draw_3 7200ms linear 0ms infinite,eZfDqcQG_fade 7200ms linear 0ms infinite;}.eZfDqcQG_4{stroke-dasharray:120 122;stroke-dashoffset:121;animation:eZfDqcQG_draw_4 7200ms linear 0ms infinite,eZfDqcQG_fade 7200ms linear 0ms infinite;}.eZfDqcQG_5{stroke-dasharray:120 122;stroke-dashoffset:121;animation:eZfDqcQG_draw_5 7200ms linear 0ms infinite,eZfDqcQG_fade 7200ms linear 0ms infinite;}.eZfDqcQG_6{stroke-dasharray:120 122;stroke-dashoffset:121;animation:eZfDqcQG_draw_6 7200ms linear 0ms infinite,eZfDqcQG_fade 7200ms linear 0ms infinite;}.eZfDqcQG_7{stroke-dasharray:112 114;stroke-dashoffset:113;animation:eZfDqcQG_draw_7 7200ms linear 0ms infinite,eZfDqcQG_fade 7200ms linear 0ms infinite;}.eZfDqcQG_8{stroke-dasharray:1240 1242;stroke-dashoffset:1241;animation:eZfDqcQG_draw_8 7200ms linear 0ms infinite,eZfDqcQG_fade 7200ms linear 0ms infinite;}.eZfDqcQG_9{stroke-dasharray:1094 1096;stroke-dashoffset:1095;animation:eZfDqcQG_draw_9 7200ms linear 0ms infinite,eZfDqcQG_fade 7200ms linear 0ms infinite;}.eZfDqcQG_10{stroke-dasharray:270 272;stroke-dashoffset:271;animation:eZfDqcQG_draw_10 7200ms linear 0ms infinite,eZfDqcQG_fade 7200ms linear 0ms infinite;}.eZfDqcQG_11{stroke-dasharray:221 223;stroke-dashoffset:222;animation:eZfDqcQG_draw_11 7200ms linear 0ms infinite,eZfDqcQG_fade 7200ms linear 0ms infinite;}.eZfDqcQG_12{stroke-dasharray:218 220;stroke-dashoffset:219;animation:eZfDqcQG_draw_12 7200ms linear 0ms infinite,eZfDqcQG_fade 7200ms linear 0ms infinite;}.eZfDqcQG_13{stroke-dasharray:219 221;stroke-dashoffset:220;animation:eZfDqcQG_draw_13 7200ms linear 0ms infinite,eZfDqcQG_fade 7200ms linear 0ms infinite;}@keyframes eZfDqcQG_draw{100%{stroke-dashoffset:0;}}@keyframes eZfDqcQG_fade{0%{stroke-opacity:1;}94.44444444444444%{stroke-opacity:1;}100%{stroke-opacity:0;}}@keyframes eZfDqcQG_draw_0{11.11111111111111%{stroke-dashoffset: 903}17.110951646910824%{ stroke-dashoffset: 0;}100%{ stroke-dashoffset: 0;}}@keyframes eZfDqcQG_draw_1{17.110951646910824%{stroke-dashoffset: 949}23.416431899927357%{ stroke-dashoffset: 0;}100%{ stroke-dashoffset: 0;}}@keyframes eZfDqcQG_draw_2{23.416431899927357%{stroke-dashoffset: 554}27.097397189886426%{ stroke-dashoffset: 0;}100%{ stroke-dashoffset: 0;}}@keyframes eZfDqcQG_draw_3{27.097397189886426%{stroke-dashoffset: 121}27.901362533000228%{ stroke-dashoffset: 0;}100%{ stroke-dashoffset: 0;}}@keyframes eZfDqcQG_draw_4{27.901362533000228%{stroke-dashoffset: 121}28.705327876114033%{ stroke-dashoffset: 0;}100%{ stroke-dashoffset: 0;}}@keyframes eZfDqcQG_draw_5{28.705327876114033%{stroke-dashoffset: 121}29.50929321922784%{ stroke-dashoffset: 0;}100%{ stroke-dashoffset: 0;}}@keyframes eZfDqcQG_draw_6{29.50929321922784%{stroke-dashoffset: 121}30.313258562341645%{ stroke-dashoffset: 0;}100%{ stroke-dashoffset: 0;}}@keyframes eZfDqcQG_draw_7{30.313258562341645%{stroke-dashoffset: 113}31.064069172026432%{ stroke-dashoffset: 0;}100%{ stroke-dashoffset: 0;}}@keyframes eZfDqcQG_draw_8{31.064069172026432%{stroke-dashoffset: 1241}39.30969719520189%{ stroke-dashoffset: 0;}100%{ stroke-dashoffset: 0;}}@keyframes eZfDqcQG_draw_9{39.30969719520189%{stroke-dashoffset: 1095}46.5852513332979%{ stroke-dashoffset: 0;}100%{ stroke-dashoffset: 0;}}@keyframes eZfDqcQG_draw_10{46.5852513332979%{stroke-dashoffset: 271}48.38586792820567%{ stroke-dashoffset: 0;}100%{ stroke-dashoffset: 0;}}@keyframes eZfDqcQG_draw_11{48.38586792820567%{stroke-dashoffset: 222}49.860911780860754%{ stroke-dashoffset: 0;}100%{ stroke-dashoffset: 0;}}@keyframes eZfDqcQG_draw_12{49.860911780860754%{stroke-dashoffset: 219}51.31602260847995%{ stroke-dashoffset: 0;}100%{ stroke-dashoffset: 0;}}@keyframes eZfDqcQG_draw_13{51.31602260847995%{stroke-dashoffset: 220}52.77777777777778%{ stroke-dashoffset: 0;}100%{ stroke-dashoffset: 0;}}</style></svg>